<?xml version="1.0" encoding="UTF-8"?>
<svg id="Warstwa_1" data-name="Warstwa 1" xmlns="http://www.w3.org/2000/svg" version="1.1" xmlns:xlink="http://www.w3.org/1999/xlink" viewBox="0 0 595.3 841.9">
  <defs>
    <style>
      .cls-1 {
        stroke: #1d1d1b;
        stroke-miterlimit: 10;
        stroke-width: 10px;
      }

      .cls-1, .cls-2 {
        fill: none;
      }

      .cls-3 {
        fill: #000;
        font-family: Hegante-Black, Hegante;
        font-size: 42px;
        font-weight: 800;
      }

      .cls-4 {
        isolation: isolate;
      }

      .cls-2 {
        display: none;
        stroke-width: 0px;
      }
    </style>
    <path id="path" d="M86.2,290.9s183.1-128.7,418.8,0"/>
  </defs>
  <image class="cls-4" width="1004" height="803" transform="translate(-.4 161.3) scale(.6)" xlink:href="logo1-1.png"/>
  <path class="cls-2" d="M174.2,287.2"/>
  <path class="cls-2" d="M110.6,280.3"/>
  <path class="cls-1" d="M177.2,300.2c-24.9-8.5-60.3-18.1-67.4-6.9-10.2,15.9,50.6,79.4,56.7,79.1,16.9-.6,59.7,131.7,64.9,127.7,21.7-4.9,42.2-46.5,33.7-47-11.7-.6,70.8,3.5,107.8,2.1,1.2,1.7,2.5,3.3,3.7,5,1.6,33.4,3.3,66.8,4.9,100.2h6.1c.2,3,0,6.2-1.7,7.1-.4.2-.8.2-1,.3-1.5.3-2.7,4.8-1.9,20.3h74.5s1-3.9-1-5.4c-1-.8-2.5-.5-3.6-.4-1.8.2-4.5-.5-9.9-1.8-10.9-2.7-26.3-18.5-26.3-18.5l-1-4.1h2.5c1.1-42,2.2-84.1,3.2-126.1,1.8,2.5,10,1.1,9.5-1.6s10.2,22.5,10.2,22.5l67.9-35.7c-1.4-1.6-4.1-4.2-8.1-5.1-1.3-.3-3.4-.5-9.7,1-3.1.8-7.3,2-12.3,4-2.2-1.2-5.4-2.6-9.5-3.4-6.6-1.1-12,.1-14.8,1-5.1-2.5-10.2-4.9-15.2-7.4.4-1.7.9-3.4,1.3-5.1-7.7-4.5-19-11.3-32.4-20.3-43.8-29.2-53.5-43.4-71.5-44.1-12.5-.5-30.6,5.5-53.4,35.7l-13.8-16.3c31.7-29,41-61.8,31.7-72.5-8.9-10.3-39.9-6.2-71,15.6l-3.1-20.2c3.7-8.6,3.1-12.2,1.5-13.8-1.4-1.5-3.2-.8-8.2-2-5.9-1.5-6.4-3.2-11.2-4.6-1.6-.5-7.5-2.1-14.3,0-1.7.5-8.6,2.7-12.8,9.2-.9,1.5-2.2,3.8-3.6,14.3-.6,4.3-1.2,10.1-1.5,17.1h0Z"/>
  <path class="cls-1" d="M191.2,337.3c.7-2.9-6.4-8.3-41.1-19-.4-.1-.7.2-.5.5,3.9,4,14.7,15.1,23.8,20.6,1.5.9,4,2.3,7.5,2.4,4.7,0,9.8-2.3,10.3-4.5Z"/>
  <path class="cls-1" d="M232.1,333.3c-2.9-4.1,4.8-9.3,38.2-20,.2,0,.5.2.3.4-3.4,4-13.7,16.2-22.2,22.1-1.3.9-3.7,2.5-6.9,2.5-4.3,0-10.5-2-9.4-4.9h0Z"/>
  <path class="cls-1" d="M328.5,409.6h38.4c.5,0,.7-.7.2-1-4.9-2.4-10.9-5.9-17.2-11-6.9-5.6-9.6-9.6-13-9-3,.5-6.6,4.7-8.9,20.4,0,.3.2.6.5.6h0Z"/>
  <text>
    <textPath startOffset="28.1%" xlink:href="#path"><tspan class="cls-3"><tspan x="0" y="0">UNMOTIVATED</tspan></tspan>
    </textPath></text>
</svg>